# xmcd CD database file
#
# Track frame offsets:
#	150
#	26568
#	41257
#	63830
#	81913
#	100685
#	118131
#	131839
#	154377
#	171474
#	187895
#	208494
#	229064
#	248511
#
# Disc length: 4176 seconds
#
# Revision: 0
# Processed by: cddbd v1.5.1PL0 Copyright (c) Steve Scherf et al.
# Submitted via: CDex 1.51
#
DISCID=be104e0e
DTITLE=Michel Huygen - Soplo Vital
DYEAR=2003
DGENRE=New Age
TTITLE0=Europa Es Europa
TTITLE1=Venezia
TTITLE2=Folie D'amour
TTITLE3=Ternura
TTITLE4=Paz Desde Tus Ojos
TTITLE5=Tú
TTITLE6=Astralia
TTITLE7=Promenade
TTITLE8=Hasta Siempre
TTITLE9=Dernier Message
TTITLE10=Tesords
TTITLE11=Lejania
TTITLE12=La Luz Del Espiritu
TTITLE13=Elementum
EXTD=YEAR: 2003
EXTT0=
EXTT1=
EXTT2=
EXTT3=
EXTT4=
EXTT5=
EXTT6=
EXTT7=
EXTT8=
EXTT9=
EXTT10=
EXTT11=
EXTT12=
EXTT13=
PLAYORDER=
